<?xml version="1.0" encoding="utf-8"?>
<!-- Generator: Adobe Illustrator 23.0.1, SVG Export Plug-In . SVG Version: 6.00 Build 0)  -->
<svg version="1.1" id="Layer_1" xmlns="http://www.w3.org/2000/svg" xmlns:xlink="http://www.w3.org/1999/xlink" x="0px" y="0px"
	 viewBox="0 0 2858.2 2369.2" style="enable-background:new 0 0 2858.2 2369.2;" xml:space="preserve">
<style type="text/css">
	.st0{fill:#FEC64E;stroke:#000000;stroke-width:6;stroke-miterlimit:10;}
	.st1{fill-rule:evenodd;clip-rule:evenodd;fill:#FFFFFF;stroke:#000000;stroke-width:6;stroke-miterlimit:10;}
	.st2{fill:none;stroke:#000000;stroke-width:6;stroke-miterlimit:10;}
	.st3{fill:#FFFFFF;stroke:#000000;stroke-width:6;stroke-linecap:round;stroke-linejoin:round;stroke-miterlimit:10;}
	.st4{fill:#F94D45;}
	.st5{fill:#EDD8CB;stroke:#000000;stroke-width:6;stroke-linecap:round;stroke-linejoin:round;stroke-miterlimit:10;}
	.st6{fill:#EDD8CB;stroke:#000000;stroke-width:6;stroke-miterlimit:10;}
	.st7{fill:#EDD8CB;}
	.st8{stroke:#000000;stroke-width:6;stroke-linecap:round;stroke-linejoin:round;stroke-miterlimit:10;}
	.st9{fill:none;stroke:#F94D45;stroke-width:10;stroke-miterlimit:10;}
	.st10{fill:none;stroke:#000000;stroke-width:6;stroke-linecap:round;stroke-linejoin:round;stroke-miterlimit:10;}
	.st11{fill:#FFFFFF;}
	.st12{fill:#FEC64E;}
	.st13{fill:#F94D45;stroke:#000000;stroke-width:6;stroke-miterlimit:10;}
	.st14{fill:#FFFFFF;stroke:#000000;stroke-width:6;stroke-miterlimit:10;}
	.st15{fill-rule:evenodd;clip-rule:evenodd;fill:#8993BE;}
	.st16{fill-rule:evenodd;clip-rule:evenodd;fill:#232531;}
	.st17{clip-path:url(#SVGID_2_);}
	.st18{clip-path:url(#SVGID_4_);}
	.st19{opacity:0;clip-path:url(#SVGID_6_);}
	.st20{clip-path:url(#SVGID_8_);fill:#FFFFFF;}
	.st21{clip-path:url(#SVGID_6_);fill:#32373C;}
	.st22{clip-path:url(#SVGID_10_);}
	.st23{clip-path:url(#SVGID_12_);}
	.st24{opacity:0;clip-path:url(#SVGID_14_);}
	.st25{clip-path:url(#SVGID_16_);fill:#FFFFFF;}
	.st26{clip-path:url(#SVGID_14_);fill:#32373C;}
	.st27{fill-rule:evenodd;clip-rule:evenodd;fill:#945C87;}
	.st28{fill-rule:evenodd;clip-rule:evenodd;fill:#FFFFFF;}
	.st29{fill-rule:evenodd;clip-rule:evenodd;}
	.st30{fill:#C54745;}
	.st31{clip-path:url(#SVGID_18_);}
	.st32{clip-path:url(#SVGID_20_);}
	.st33{opacity:0;clip-path:url(#SVGID_22_);}
	.st34{clip-path:url(#SVGID_24_);fill:#FFFFFF;}
	.st35{clip-path:url(#SVGID_22_);fill:#32373C;}
	.st36{fill:none;stroke:#FFFFFF;stroke-width:6;stroke-miterlimit:10;}
	.st37{clip-path:url(#SVGID_26_);}
	.st38{clip-path:url(#SVGID_28_);}
	.st39{opacity:0;clip-path:url(#SVGID_30_);}
	.st40{clip-path:url(#SVGID_32_);fill:#FFFFFF;}
	.st41{clip-path:url(#SVGID_30_);fill:#32373C;}
	.st42{fill:#999999;stroke:#000000;stroke-width:8;stroke-miterlimit:10;}
	.st43{fill:none;stroke:#CCCCCC;stroke-width:8;stroke-miterlimit:10;}
	.st44{fill:none;stroke:#FFFFFF;stroke-width:12;stroke-miterlimit:10;}
	.st45{fill:none;stroke:#000000;stroke-width:12;stroke-miterlimit:10;}
	.st46{fill:#FD92F2;}
	.st47{fill:#B3B3B3;stroke:#000000;stroke-width:6;stroke-miterlimit:10;}
	.st48{fill:#151D39;stroke:#000000;stroke-width:6;stroke-miterlimit:10;}
	.st49{fill:#999999;stroke:#000000;stroke-width:6;stroke-miterlimit:10;}
	.st50{fill:#641FE1;}
	.st51{fill:#71EFC3;}
	.st52{fill:#FEC64E;stroke:#000000;stroke-width:8;stroke-miterlimit:10;}
	.st53{fill:#F94D45;stroke:#000000;stroke-width:8;stroke-miterlimit:10;}
	.st54{fill:#1DADFB;stroke:#000000;stroke-width:6;stroke-miterlimit:10;}
	.st55{fill:#1DADFB;stroke:#000000;stroke-width:8;stroke-miterlimit:10;}
	.st56{fill:#F84D45;stroke:#000000;stroke-width:9;stroke-miterlimit:10;}
	.st57{fill:#FFFFFF;stroke:#000000;stroke-width:9;stroke-miterlimit:10;}
	.st58{fill:#71EFC3;stroke:#000000;stroke-width:9;stroke-miterlimit:10;}
	.st59{fill:#FEC64E;stroke:#000000;stroke-width:9;stroke-miterlimit:10;}
	.st60{fill:#FD92F2;stroke:#000000;stroke-width:9;stroke-miterlimit:10;}
	.st61{fill:#641FE1;stroke:#000000;stroke-width:9;stroke-miterlimit:10;}
	.st62{fill:#1CAEFC;stroke:#000000;stroke-width:9;stroke-miterlimit:10;}
</style>
<g>
	<rect x="886.9" y="428.6" class="st42" width="279.9" height="72.8"/>
	<rect x="886.9" y="501.4" class="st42" width="279.9" height="72.8"/>
	<rect x="886.9" y="574.2" class="st42" width="279.9" height="72.8"/>
	<rect x="886.9" y="647" class="st42" width="279.9" height="72.8"/>
	<circle cx="1141" cy="465" r="7.8"/>
	<circle cx="1111.9" cy="465" r="7.8"/>
	<circle cx="1141" cy="537.8" r="7.8"/>
	<circle cx="1111.9" cy="537.8" r="7.8"/>
	<circle cx="1141" cy="610.6" r="7.8"/>
	<circle cx="1111.9" cy="610.6" r="7.8"/>
	<circle cx="1141" cy="683.4" r="7.8"/>
	<circle cx="1111.9" cy="683.4" r="7.8"/>
	<line class="st43" x1="910.9" y1="467.2" x2="1076.7" y2="467.2"/>
	<rect x="886.9" y="355.8" class="st42" width="279.9" height="72.8"/>
	<circle cx="1141" cy="393.8" r="7.8"/>
	<circle cx="1111.9" cy="393.8" r="7.8"/>
	<line class="st43" x1="910.9" y1="394.7" x2="1076.7" y2="394.7"/>
	<line class="st43" x1="910.9" y1="537.3" x2="1076.7" y2="537.3"/>
	<line class="st43" x1="910.9" y1="613.4" x2="1076.7" y2="613.4"/>
	<line class="st43" x1="910.9" y1="683.4" x2="1076.7" y2="683.4"/>
</g>
<g>
	<g>
		<line class="st45" x1="603.5" y1="493" x2="563.4" y2="457.8"/>
		<line class="st45" x1="564.4" y1="465.7" x2="599.6" y2="425.6"/>
	</g>
	<line class="st45" x1="808.2" y1="460.7" x2="574.6" y2="460.7"/>
</g>
<g>
	<g>
		<line class="st45" x1="768.2" y1="520.3" x2="808.2" y2="555.5"/>
		<line class="st45" x1="807.2" y1="547.6" x2="772" y2="587.6"/>
	</g>
	<line class="st45" x1="563.4" y1="552.5" x2="797.1" y2="552.5"/>
</g>
<g>
	<g>
		<line class="st45" x1="1281.9" y1="493" x2="1241.8" y2="457.8"/>
		<line class="st45" x1="1242.8" y1="465.7" x2="1278" y2="425.6"/>
	</g>
	<line class="st45" x1="1486.6" y1="460.7" x2="1253" y2="460.7"/>
</g>
<g>
	<g>
		<line class="st45" x1="1446.6" y1="520.3" x2="1486.6" y2="555.5"/>
		<line class="st45" x1="1485.6" y1="547.6" x2="1450.4" y2="587.6"/>
	</g>
	<line class="st45" x1="1241.8" y1="552.5" x2="1475.5" y2="552.5"/>
</g>
<g>
	<g>
		<g>
			<path class="st46" d="M375.3,479v0.9c0,1.2,1.2,2,3.5,2c2.3,0,3.5-0.8,3.5-2v-7.2h3.9v7.4c0,2.2-2.6,3.9-7.4,3.9
				c-4.9,0-7.3-1.7-7.3-3.9V479H375.3z"/>
			<path class="st46" d="M400.2,475.6c-1.2-0.7-2.8-1.1-4.2-1.1c-1.3,0-2.5,0.4-2.5,1c0,0.5,0.6,0.9,2.1,1.3l1.6,0.4
				c3.1,0.8,5,1.7,5,3.4c0,1.7-2.5,3.3-6.8,3.3c-3,0-5.2-0.7-7-1.7l2.2-1.6c1.5,0.8,3.3,1.3,4.8,1.3c1.7,0,2.7-0.5,2.7-1.2
				c0-0.8-1.2-1.2-3.1-1.7l-1.4-0.4c-2.6-0.7-4.3-1.7-4.3-3.1c0-2,3.1-3.1,6.6-3.1c2.3,0,4.6,0.6,6.5,1.6L400.2,475.6z"/>
		</g>
	</g>
	<g>
		<rect x="50" y="359" class="st47" width="446.4" height="295.3"/>
		<rect x="50" y="359" class="st48" width="446.4" height="244.8"/>
	</g>
	<polygon class="st49" points="319.4,694.6 319.4,654.3 227,654.3 227,694.6 130.5,694.6 130.5,723.9 415.8,723.9 415.8,694.6 	"/>
	<rect x="80.7" y="388.7" class="st4" width="131.2" height="117.9"/>
	<rect x="246.5" y="388.7" class="st12" width="220.1" height="46.2"/>
	<rect x="246.5" y="460.9" class="st50" width="220.1" height="45.7"/>
	<rect x="80.7" y="537.8" class="st51" width="385.9" height="47.4"/>
</g>
<g>
	<g>
		<g>
			<path class="st46" d="M375.3,1390.8v0.9c0,1.2,1.2,2,3.5,2c2.3,0,3.5-0.8,3.5-2v-7.2h3.9v7.4c0,2.2-2.6,3.9-7.4,3.9
				c-4.9,0-7.3-1.7-7.3-3.9v-1.1H375.3z"/>
			<path class="st46" d="M400.2,1387.4c-1.2-0.7-2.8-1.1-4.2-1.1c-1.3,0-2.5,0.4-2.5,1c0,0.5,0.6,0.9,2.1,1.3l1.6,0.4
				c3.1,0.8,5,1.7,5,3.4s-2.5,3.3-6.8,3.3c-3,0-5.2-0.7-7-1.7l2.2-1.6c1.5,0.8,3.3,1.3,4.8,1.3c1.7,0,2.7-0.5,2.7-1.2
				c0-0.8-1.2-1.2-3.1-1.7l-1.4-0.4c-2.6-0.7-4.3-1.7-4.3-3.1c0-2,3.1-3.1,6.6-3.1c2.3,0,4.6,0.6,6.5,1.6L400.2,1387.4z"/>
		</g>
	</g>
	<g>
		<rect x="50" y="1270.8" class="st47" width="446.4" height="295.3"/>
		<rect x="50" y="1270.8" class="st48" width="446.4" height="244.8"/>
	</g>
	<polygon class="st49" points="319.4,1606.4 319.4,1566.1 227,1566.1 227,1606.4 130.5,1606.4 130.5,1635.7 415.8,1635.7 
		415.8,1606.4 	"/>
	<rect x="80.7" y="1300.5" class="st4" width="131.2" height="117.9"/>
	<rect x="246.5" y="1300.5" class="st12" width="220.1" height="46.2"/>
	<rect x="246.5" y="1372.7" class="st50" width="220.1" height="45.7"/>
	<rect x="80.7" y="1449.6" class="st51" width="385.9" height="47.4"/>
</g>
<g>
	<g>
		<path d="M107.9,37.4c-5.4-5.3-12.5-9.1-18.6-9.1c-5.8,0-11.1,3-11.1,8.3c0,4,2.5,7.2,9.6,10.5l7.3,3.4c14,6.6,22.4,13.9,22.4,27.1
			c0,13.2-11.2,26.1-30.6,26.1c-13.4,0-23.3-5.2-31.6-13.2l9.7-13.1c6.6,6.7,14.9,10.5,21.5,10.5c7.6,0,12.2-4.2,12.2-9.6
			c0-6-5.4-9.5-13.9-13.4l-6.2-2.9c-11.8-5.5-19.3-13.6-19.3-24.7c0-15.5,13.9-24.8,29.5-24.8c10.2,0,20.7,5,29.1,12.3L107.9,37.4z"
			/>
		<path d="M148.5,22.5v21.9h12.5v13.9h-12.5v26.1c0,3.7,2.9,4.2,5.4,4.2c4.2,0,7.6-0.4,7.6-0.4v14c0,0-7.9,0.8-12.7,0.8
			c-8.2,0-16.6-1.4-16.6-13V58.3H123V44.4h9.1V22.5H148.5z"/>
		<path d="M204.3,63.7c0-4.2-3.3-6.8-9.6-6.8c-5.8,0-13.1,2.9-17.4,5.4L170.9,50c0,0,10.7-7.1,24.7-7.1c13.1,0,25.1,6,25.1,21.3
			v37.9h-16.4v-5.4c-3,4.5-9.6,6.9-16.1,6.9c-12.2,0-20.2-8.7-20.2-18.1c0-11,8.1-17.8,20.9-17.8h11.3c2.8,0,4-1.3,4-3.4V63.7z
			 M204.3,81.5v-4.2c-1,1-2.8,1.3-5,1.3h-6.2c-5.2,0-8.2,2.3-8.2,6.3c0,3.9,3.2,6.8,8.2,6.8C199,91.7,204.3,88.6,204.3,81.5z"/>
		<path d="M254.8,22.5v21.9h12.5v13.9h-12.5v26.1c0,3.7,2.9,4.2,5.4,4.2c4.2,0,7.6-0.4,7.6-0.4v14c0,0-7.9,0.8-12.7,0.8
			c-8.2,0-16.6-1.4-16.6-13V58.3h-9.1V44.4h9.1V22.5H254.8z"/>
		<path d="M298.4,102.1H282V58.3H274V44.4h24.4V102.1z M289.5,13.9c5.9,0,10.6,4.8,10.6,10.6c0,5.9-4.7,10.5-10.6,10.5
			c-5.8,0-10.5-4.5-10.5-10.5C279,18.7,283.7,13.9,289.5,13.9z"/>
		<path d="M325.2,73.3c0,9.1,5.9,15.8,14.5,15.8c6,0,10.6-3.4,12.7-8.8l15.4,4.8c-3.8,11.5-15.1,18.6-28.2,18.6
			c-17.1,0-30.7-12.7-30.7-30.4c0-17.6,13.6-30.4,30.7-30.4c13.1,0,24.4,7.3,28.2,18.8l-15.4,4.7c-2.1-5.3-6.7-8.8-12.7-8.8
			C331.2,57.5,325.2,64.2,325.2,73.3z"/>
	</g>
	<line class="st45" x1="51.4" y1="146" x2="2825.3" y2="148.4"/>
</g>
<g>
	<g>
		<path d="M75.9,1002.5H45.6v-88.2h30.2c28.9,0,45.7,17.9,45.7,44.1S104.7,1002.5,75.9,1002.5z M75.2,929.3H63.2v58.3h12.1
			c16.1,0,28.5-9.5,28.5-29.2C103.7,938.9,91.4,929.3,75.2,929.3z"/>
		<path d="M151.2,1002.5h-4.2l-19.8-57.7h18.3l12.2,41.1l12.3-41.1h17.8l-23.1,66.8c-2.9,8.4-7.4,13-18,13h-11.3v-13.7h8.1
			c3.3,0,5.3-1.3,6.4-4.5L151.2,1002.5z"/>
		<path d="M229.6,943.3c12.5,0,21.4,7.9,21.4,21.4v37.8h-16.4v-33.6c0-7.3-4.7-10.3-9.8-10.3c-4.8,0-9.1,2.6-12.2,6.6v37.4h-16.4
			v-57.7h16v2.3c0,2-0.3,4.5-0.3,4.5C216.4,946.2,222.9,943.3,229.6,943.3z"/>
		<path d="M296.5,964.1c0-4.2-3.3-6.8-9.6-6.8c-5.8,0-13.1,2.9-17.4,5.4l-6.4-12.3c0,0,10.7-7.1,24.7-7.1c13.1,0,25.1,6,25.1,21.3
			v37.9h-16.4v-5.4c-3,4.5-9.6,6.9-16.1,6.9c-12.2,0-20.2-8.7-20.2-18.1c0-11,8.1-17.8,20.9-17.8h11.3c2.8,0,4-1.3,4-3.4V964.1z
			 M296.5,981.9v-4.2c-1,1-2.8,1.3-5,1.3h-6.2c-5.2,0-8.2,2.3-8.2,6.3c0,3.9,3.2,6.8,8.2,6.8C291.2,992.1,296.5,989,296.5,981.9z"/>
		<path d="M402.2,968.6c0-7.1-4.5-10.1-9.6-10.1c-4.7,0-8.8,2.6-12,6.6v37.4h-16.4v-33.9c0-6.9-4.4-10.1-9.6-10.1
			c-4.7,0-8.8,2.6-12,6.6v37.4h-16.4v-57.7h16v2.3c0,2-0.3,4.5-0.3,4.5c4.3-5.3,10.7-8.3,17.3-8.3c8.6,0,15.2,3.7,18.5,10.5
			c4.8-6.7,11.3-10.5,19.4-10.5c12.5,0,21.3,7.9,21.3,21.4v37.8h-16.4V968.6z"/>
		<path d="M451.9,1002.5h-16.4v-43.9h-8.1v-13.9h24.4V1002.5z M442.9,914.3c5.9,0,10.6,4.8,10.6,10.6c0,5.9-4.7,10.5-10.6,10.5
			c-5.8,0-10.5-4.5-10.5-10.5C432.5,919.1,437.1,914.3,442.9,914.3z"/>
		<path d="M478.7,973.7c0,9.1,5.9,15.8,14.5,15.8c6,0,10.6-3.4,12.7-8.8l15.4,4.8c-3.8,11.5-15.1,18.6-28.2,18.6
			c-17.1,0-30.7-12.7-30.7-30.4c0-17.6,13.6-30.4,30.7-30.4c13.1,0,24.4,7.3,28.2,18.8l-15.4,4.7c-2.1-5.3-6.7-8.8-12.7-8.8
			C484.6,957.9,478.7,964.6,478.7,973.7z"/>
	</g>
	<line class="st45" x1="43.8" y1="1056.9" x2="2832.3" y2="1059.3"/>
</g>
<g>
	<path d="M235.2,282.4v-33.7h10.1v34.6c0,10.1-6.6,18.1-19.4,18.1c-12.9,0-19.3-8-19.3-18.1v-34.6h10.3v33.7c0,5.6,3.1,9.5,9.2,9.5
		C232.1,291.9,235.2,288,235.2,282.4z"/>
	<path d="M273.3,277c-2.7-2.7-6.1-3.5-8.4-3.5c-2.5,0-3.4,1.3-3.4,2.3c0,1.2,0.7,2,2.5,2.6l5.6,1.8c7,2.3,9.3,6.1,9.3,10.5
		c0,5-4.2,10.7-13.5,10.7c-7.5,0-12.1-2.9-14.9-5.3l5.1-6.7c2.4,2.3,6.8,4.2,10,4.2c2.3,0,3.7-1.2,3.7-2.5c0-1.7-1.1-2.4-3.8-3.3
		l-5.8-1.7c-5.5-1.8-7.8-5.5-7.8-9.9c0-5.6,5-10.5,13.2-10.5c4.4,0,9.7,1.3,13.7,5L273.3,277z"/>
	<path d="M318.3,286.4h-25.2c0.5,3.8,3.5,6.8,7.8,6.8c2.8,0,5.5-1.2,6.8-3.5l10,1c-3,7.3-9.4,10.7-16.9,10.7
		c-10.1,0-17.8-7.5-17.8-17.8c0-10.4,7.5-17.8,17.6-17.8c9.3,0,17.8,6.1,17.8,20.3V286.4z M292.9,280H308c-0.5-3.4-3.4-6.2-7.5-6.2
		S293.6,276.3,292.9,280z"/>
	<path d="M344.8,276.1h-4.1c-4.9,0-7.1,2.3-7.1,8.2v16.2H324v-33.9h9.3v5.4c1.3-3.6,4.6-5.8,8.8-5.8c0.9,0,1.8,0.1,2.7,0.3V276.1z"
		/>
</g>
<g>
	<path d="M883.2,248.7l9.9,37.1h0.1l8.3-37.1H912l-12.7,51.8h-11.9l-9.8-37.2l-9.5,37.2h-11.9l-12.8-51.8h11.1l8,37.1h0.1l9.9-37.1
		H883.2z"/>
	<path d="M947.7,286.4h-25.2c0.5,3.8,3.5,6.8,7.8,6.8c2.8,0,5.5-1.2,6.8-3.5l10,1c-3,7.3-9.4,10.7-16.9,10.7
		c-10.1,0-17.8-7.5-17.8-17.8c0-10.4,7.5-17.8,17.6-17.8c9.3,0,17.8,6.1,17.8,20.3V286.4z M922.3,280h15.2c-0.5-3.4-3.4-6.2-7.5-6.2
		S923,276.3,922.3,280z"/>
	<path d="M963,300.5h-9.6v-51.8h9.6v16.7c0,2.2-0.1,4.6-0.1,5.6c1.6-2.9,5.6-5.3,10.7-5.3c9.3,0,16.4,7.5,16.4,17.8
		c0,10.4-7.2,17.8-16.5,17.8c-4.8,0-8.8-2.3-10.5-5.2V300.5z M962.8,283.6c0,5.2,3.6,9.3,8.7,9.3s8.7-4.1,8.7-9.3
		c0-5.3-3.6-9.3-8.7-9.3S962.8,278.3,962.8,283.6z"/>
	<path d="M1039,262.5c-3.2-3.1-7.3-5.3-11-5.3c-3.4,0-6.5,1.8-6.5,4.9c0,2.4,1.5,4.2,5.6,6.1l4.3,2c8.2,3.8,13.2,8.1,13.2,15.9
		c0,7.8-6.6,15.3-18,15.3c-7.8,0-13.7-3-18.6-7.8l5.7-7.7c3.8,3.9,8.7,6.1,12.7,6.1c4.4,0,7.2-2.4,7.2-5.6c0-3.6-3.2-5.6-8.1-7.8
		l-3.6-1.7c-7-3.3-11.3-8-11.3-14.5c0-9.1,8.1-14.6,17.3-14.6c6,0,12.1,3,17.1,7.3L1039,262.5z"/>
	<path d="M1084.1,286.4h-25.2c0.5,3.8,3.5,6.8,7.8,6.8c2.8,0,5.5-1.2,6.8-3.5l10,1c-3,7.3-9.4,10.7-16.9,10.7
		c-10.1,0-17.8-7.5-17.8-17.8c0-10.4,7.5-17.8,17.6-17.8c9.3,0,17.8,6.1,17.8,20.3V286.4z M1058.6,280h15.2
		c-0.5-3.4-3.4-6.2-7.5-6.2S1059.4,276.3,1058.6,280z"/>
	<path d="M1110.6,276.1h-4.1c-4.9,0-7.1,2.3-7.1,8.2v16.2h-9.6v-33.9h9.3v5.4c1.3-3.6,4.6-5.8,8.8-5.8c0.9,0,1.8,0.1,2.7,0.3V276.1z
		"/>
	<path d="M1130.4,290.2l7.7-23.5h10.1l-12.1,33.9h-11.9l-11.5-33.9h10.4L1130.4,290.2z"/>
	<path d="M1185.2,286.4h-25.2c0.5,3.8,3.5,6.8,7.8,6.8c2.8,0,5.5-1.2,6.8-3.5l10,1c-3,7.3-9.4,10.7-16.9,10.7
		c-10.1,0-17.8-7.5-17.8-17.8c0-10.4,7.5-17.8,17.6-17.8c9.3,0,17.8,6.1,17.8,20.3V286.4z M1159.7,280h15.2
		c-0.5-3.4-3.4-6.2-7.5-6.2S1160.5,276.3,1159.7,280z"/>
	<path d="M1211.7,276.1h-4.1c-4.9,0-7.1,2.3-7.1,8.2v16.2h-9.6v-33.9h9.3v5.4c1.3-3.6,4.6-5.8,8.8-5.8c0.9,0,1.8,0.1,2.7,0.3V276.1z
		"/>
</g>
<g>
	<path d="M1682.1,300.5v-22h-20.6v22h-10.3v-51.8h10.3v21h20.6v-21h10.3v51.8H1682.1z"/>
	<path d="M1739.9,248.7v9.2h-15.5v42.6h-10.2v-42.6h-15.5v-9.2H1739.9z"/>
	<path d="M1766.6,289.4l-10.2-25.5v36.6h-10v-51.8h14.5l11.3,29.4l11.5-29.4h13.8v51.8h-10.2v-36.6l-9.9,25.5H1766.6z"/>
	<path d="M1808.4,300.5v-51.8h10.3v43h22v8.8H1808.4z"/>
	<path d="M1869.9,280v20.6h-10.3v-51.8h37.5v8.9h-27.2v13.5h20v8.9H1869.9z"/>
	<path d="M1913.6,300.5h-9.6v-25.8h-4.7v-8.1h14.4V300.5z M1908.4,248.7c3.5,0,6.2,2.8,6.2,6.2c0,3.5-2.7,6.1-6.2,6.1
		c-3.4,0-6.1-2.7-6.1-6.1C1902.2,251.5,1905,248.7,1908.4,248.7z"/>
	<path d="M1931.5,300.5h-9.5v-51.8h9.5V300.5z"/>
	<path d="M1973,286.4h-25.2c0.5,3.8,3.5,6.8,7.8,6.8c2.8,0,5.5-1.2,6.8-3.5l10,1c-3,7.3-9.4,10.7-16.9,10.7
		c-10.1,0-17.8-7.5-17.8-17.8c0-10.4,7.5-17.8,17.6-17.8c9.3,0,17.8,6.1,17.8,20.3V286.4z M1947.5,280h15.2
		c-0.5-3.4-3.4-6.2-7.5-6.2S1948.3,276.3,1947.5,280z"/>
	<path d="M1998.7,277c-2.7-2.7-6.1-3.5-8.4-3.5c-2.5,0-3.4,1.3-3.4,2.3c0,1.2,0.7,2,2.5,2.6l5.6,1.8c7,2.3,9.3,6.1,9.3,10.5
		c0,5-4.2,10.7-13.5,10.7c-7.5,0-12.1-2.9-14.9-5.3l5.1-6.7c2.4,2.3,6.8,4.2,10,4.2c2.3,0,3.7-1.2,3.7-2.5c0-1.7-1.1-2.4-3.8-3.3
		l-5.8-1.7c-5.5-1.8-7.8-5.5-7.8-9.9c0-5.6,5-10.5,13.2-10.5c4.4,0,9.7,1.3,13.7,5L1998.7,277z"/>
</g>
<g>
	<rect x="886.9" y="1343.7" class="st42" width="279.9" height="72.8"/>
	<rect x="886.9" y="1416.5" class="st42" width="279.9" height="72.8"/>
	<rect x="886.9" y="1489.3" class="st42" width="279.9" height="72.8"/>
	<rect x="886.9" y="1562.2" class="st42" width="279.9" height="72.8"/>
	<circle cx="1141" cy="1380.1" r="7.8"/>
	<circle cx="1111.9" cy="1380.1" r="7.8"/>
	<circle cx="1141" cy="1452.9" r="7.8"/>
	<circle cx="1111.9" cy="1452.9" r="7.8"/>
	<circle cx="1141" cy="1525.7" r="7.8"/>
	<circle cx="1111.9" cy="1525.7" r="7.8"/>
	<circle cx="1141" cy="1598.6" r="7.8"/>
	<circle cx="1111.9" cy="1598.6" r="7.8"/>
	<line class="st43" x1="910.9" y1="1382.3" x2="1076.7" y2="1382.3"/>
	<rect x="886.9" y="1270.9" class="st42" width="279.9" height="72.8"/>
	<circle cx="1141" cy="1309" r="7.8"/>
	<circle cx="1111.9" cy="1309" r="7.8"/>
	<line class="st43" x1="910.9" y1="1309.9" x2="1076.7" y2="1309.9"/>
	<line class="st43" x1="910.9" y1="1452.4" x2="1076.7" y2="1452.4"/>
	<line class="st43" x1="910.9" y1="1528.5" x2="1076.7" y2="1528.5"/>
	<line class="st43" x1="910.9" y1="1598.6" x2="1076.7" y2="1598.6"/>
</g>
<g>
	<g>
		<line class="st45" x1="603.5" y1="1426.1" x2="563.4" y2="1390.9"/>
		<line class="st45" x1="564.4" y1="1398.8" x2="599.6" y2="1358.8"/>
	</g>
	<line class="st45" x1="808.2" y1="1393.9" x2="574.6" y2="1393.9"/>
</g>
<g>
	<g>
		<line class="st45" x1="768.2" y1="1453.4" x2="808.2" y2="1488.6"/>
		<line class="st45" x1="807.2" y1="1480.7" x2="772" y2="1520.8"/>
	</g>
	<line class="st45" x1="563.4" y1="1485.7" x2="797.1" y2="1485.7"/>
</g>
<g>
	<g>
		<g>
			<line class="st45" x1="1287.1" y1="1426.1" x2="1247" y2="1390.9"/>
			<line class="st45" x1="1248" y1="1398.8" x2="1283.2" y2="1358.8"/>
		</g>
		<line class="st45" x1="1491.8" y1="1393.9" x2="1258.2" y2="1393.9"/>
	</g>
	<g>
		<g>
			<line class="st45" x1="1451.8" y1="1453.4" x2="1491.8" y2="1488.6"/>
			<line class="st45" x1="1490.8" y1="1480.7" x2="1455.6" y2="1520.8"/>
		</g>
		<line class="st45" x1="1247" y1="1485.7" x2="1480.7" y2="1485.7"/>
	</g>
</g>
<g>
	<g>
		<g>
			<line class="st45" x1="2010.6" y1="1426.1" x2="1970.5" y2="1390.9"/>
			<line class="st45" x1="1971.5" y1="1398.8" x2="2006.7" y2="1358.8"/>
		</g>
		<line class="st45" x1="2215.3" y1="1393.9" x2="1981.7" y2="1393.9"/>
	</g>
	<g>
		<g>
			<line class="st45" x1="2175.2" y1="1453.4" x2="2215.3" y2="1488.6"/>
			<line class="st45" x1="2214.3" y1="1480.7" x2="2179.1" y2="1520.8"/>
		</g>
		<line class="st45" x1="1970.5" y1="1485.7" x2="2204.1" y2="1485.7"/>
	</g>
</g>
<g>
	<g>
		<g>
			<line class="st45" x1="1746.8" y1="1707" x2="1782" y2="1666.9"/>
			<line class="st45" x1="1774.1" y1="1668" x2="1814.1" y2="1703.1"/>
		</g>
		<line class="st45" x1="1779" y1="1911.7" x2="1779" y2="1678.1"/>
	</g>
	<g>
		<g>
			<line class="st45" x1="1719.5" y1="1871.7" x2="1684.3" y2="1911.7"/>
			<line class="st45" x1="1692.2" y1="1910.7" x2="1652.1" y2="1875.5"/>
		</g>
		<line class="st45" x1="1687.3" y1="1666.9" x2="1687.3" y2="1900.6"/>
	</g>
</g>
<g>
	<path d="M883.2,1160.9l9.9,37.1h0.1l8.3-37.1H912l-12.7,51.8h-11.9l-9.8-37.2l-9.5,37.2h-11.9l-12.8-51.8h11.1l8,37.1h0.1l9.9-37.1
		H883.2z"/>
	<path d="M947.7,1198.5h-25.2c0.5,3.8,3.5,6.8,7.8,6.8c2.8,0,5.5-1.2,6.8-3.5l10,1c-3,7.3-9.4,10.7-16.9,10.7
		c-10.1,0-17.8-7.5-17.8-17.8c0-10.4,7.5-17.8,17.6-17.8c9.3,0,17.8,6.1,17.8,20.3V1198.5z M922.3,1192.1h15.2
		c-0.5-3.4-3.4-6.2-7.5-6.2S923,1188.5,922.3,1192.1z"/>
	<path d="M963,1212.7h-9.6v-51.8h9.6v16.7c0,2.2-0.1,4.6-0.1,5.6c1.6-2.9,5.6-5.3,10.7-5.3c9.3,0,16.4,7.5,16.4,17.8
		c0,10.4-7.2,17.8-16.5,17.8c-4.8,0-8.8-2.3-10.5-5.2V1212.7z M962.8,1195.7c0,5.2,3.6,9.3,8.7,9.3s8.7-4.1,8.7-9.3
		c0-5.3-3.6-9.3-8.7-9.3S962.8,1190.5,962.8,1195.7z"/>
	<path d="M1039,1174.6c-3.2-3.1-7.3-5.3-11-5.3c-3.4,0-6.5,1.8-6.5,4.9c0,2.4,1.5,4.2,5.6,6.1l4.3,2c8.2,3.8,13.2,8.1,13.2,15.9
		c0,7.8-6.6,15.3-18,15.3c-7.8,0-13.7-3-18.6-7.8l5.7-7.7c3.8,3.9,8.7,6.1,12.7,6.1c4.4,0,7.2-2.4,7.2-5.6c0-3.6-3.2-5.6-8.1-7.8
		l-3.6-1.7c-7-3.3-11.3-8-11.3-14.5c0-9.1,8.1-14.6,17.3-14.6c6,0,12.1,3,17.1,7.3L1039,1174.6z"/>
	<path d="M1084.1,1198.5h-25.2c0.5,3.8,3.5,6.8,7.8,6.8c2.8,0,5.5-1.2,6.8-3.5l10,1c-3,7.3-9.4,10.7-16.9,10.7
		c-10.1,0-17.8-7.5-17.8-17.8c0-10.4,7.5-17.8,17.6-17.8c9.3,0,17.8,6.1,17.8,20.3V1198.5z M1058.6,1192.1h15.2
		c-0.5-3.4-3.4-6.2-7.5-6.2S1059.4,1188.5,1058.6,1192.1z"/>
	<path d="M1110.6,1188.3h-4.1c-4.9,0-7.1,2.3-7.1,8.2v16.2h-9.6v-33.9h9.3v5.4c1.3-3.6,4.6-5.8,8.8-5.8c0.9,0,1.8,0.1,2.7,0.3
		V1188.3z"/>
	<path d="M1130.4,1202.3l7.7-23.5h10.1l-12.1,33.9h-11.9l-11.5-33.9h10.4L1130.4,1202.3z"/>
	<path d="M1185.2,1198.5h-25.2c0.5,3.8,3.5,6.8,7.8,6.8c2.8,0,5.5-1.2,6.8-3.5l10,1c-3,7.3-9.4,10.7-16.9,10.7
		c-10.1,0-17.8-7.5-17.8-17.8c0-10.4,7.5-17.8,17.6-17.8c9.3,0,17.8,6.1,17.8,20.3V1198.5z M1159.7,1192.1h15.2
		c-0.5-3.4-3.4-6.2-7.5-6.2S1160.5,1188.5,1159.7,1192.1z"/>
	<path d="M1211.7,1188.3h-4.1c-4.9,0-7.1,2.3-7.1,8.2v16.2h-9.6v-33.9h9.3v5.4c1.3-3.6,4.6-5.8,8.8-5.8c0.9,0,1.8,0.1,2.7,0.3
		V1188.3z"/>
</g>
<g>
	<path d="M1507.8,1216.2h-10.2v-51.8h17.5c12.2,0,18.6,7.6,18.6,17c0,9.3-6.4,17.2-18.6,17.2h-7.3V1216.2z M1507.8,1173.2v16.6h5.8
		c5.6,0,9.7-2.7,9.7-8.4c0-5.8-4.1-8.1-9.7-8.1H1507.8z"/>
	<path d="M1571.5,1216.2v-22h-20.6v22h-10.3v-51.8h10.3v21h20.6v-21h10.3v51.8H1571.5z"/>
	<path d="M1602.8,1216.2h-10.2v-51.8h17.5c12.2,0,18.6,7.6,18.6,17c0,9.3-6.4,17.2-18.6,17.2h-7.3V1216.2z M1602.8,1173.2v16.6h5.8
		c5.6,0,9.7-2.7,9.7-8.4c0-5.8-4.1-8.1-9.7-8.1H1602.8z"/>
	<path d="M1648.4,1164.4h10.3v51.8h-10.3V1164.4z"/>
	<path d="M1687.8,1181.4c7.3,0,12.6,4.7,12.6,12.6v22.2h-9.6v-19.8c0-4.3-2.7-6.1-5.8-6.1c-2.8,0-5.3,1.6-7.2,3.8v22h-9.6v-33.9h9.4
		v1.3c0,1.2-0.1,2.7-0.1,2.7C1680.1,1183.1,1683.9,1181.4,1687.8,1181.4z"/>
	<path d="M1720.5,1169.4v12.9h7.3v8.1h-7.3v15.3c0,2.1,1.7,2.4,3.2,2.4c2.4,0,4.4-0.2,4.4-0.2v8.2c0,0-4.7,0.4-7.5,0.4
		c-4.8,0-9.8-0.8-9.8-7.6v-18.6h-5.3v-8.1h5.3v-12.9H1720.5z"/>
	<path d="M1767.7,1202h-25.2c0.5,3.8,3.5,6.8,7.8,6.8c2.8,0,5.5-1.2,6.8-3.5l10,1c-3,7.3-9.4,10.7-16.9,10.7
		c-10.1,0-17.8-7.5-17.8-17.8c0-10.4,7.5-17.8,17.6-17.8c9.3,0,17.8,6.1,17.8,20.3V1202z M1742.2,1195.6h15.2
		c-0.5-3.4-3.4-6.2-7.5-6.2S1743,1192,1742.2,1195.6z"/>
	<path d="M1794.2,1191.7h-4.1c-4.9,0-7.1,2.3-7.1,8.2v16.2h-9.6v-33.9h9.3v5.4c1.3-3.6,4.6-5.8,8.8-5.8c0.9,0,1.8,0.1,2.7,0.3
		V1191.7z"/>
	<path d="M1809.2,1229.1h-9.6v-46.8h9.6v1.6c0,1.6-0.1,2.4-0.1,2.7c1.6-2.9,5.6-5.3,10.7-5.3c9.3,0,16.4,7.5,16.4,17.8
		c0,10.4-7.2,17.8-16.5,17.8c-4.8,0-8.8-2.3-10.5-5.2V1229.1z M1809,1199.2c0,5.2,3.6,9.3,8.7,9.3s8.7-4.1,8.7-9.3
		c0-5.3-3.6-9.3-8.7-9.3S1809,1194,1809,1199.2z"/>
	<path d="M1863.2,1191.7h-4.1c-4.9,0-7.1,2.3-7.1,8.2v16.2h-9.6v-33.9h9.3v5.4c1.3-3.6,4.6-5.8,8.8-5.8c0.9,0,1.8,0.1,2.7,0.3
		V1191.7z"/>
	<path d="M1901.5,1202h-25.2c0.5,3.8,3.5,6.8,7.8,6.8c2.8,0,5.5-1.2,6.8-3.5l10,1c-3,7.3-9.4,10.7-16.9,10.7
		c-10.1,0-17.8-7.5-17.8-17.8c0-10.4,7.5-17.8,17.6-17.8c9.3,0,17.8,6.1,17.8,20.3V1202z M1876,1195.6h15.2
		c-0.5-3.4-3.4-6.2-7.5-6.2S1876.7,1192,1876,1195.6z"/>
	<path d="M1919.3,1169.4v12.9h7.3v8.1h-7.3v15.3c0,2.1,1.7,2.4,3.2,2.4c2.4,0,4.4-0.2,4.4-0.2v8.2c0,0-4.7,0.4-7.5,0.4
		c-4.8,0-9.8-0.8-9.8-7.6v-18.6h-5.3v-8.1h5.3v-12.9H1919.3z"/>
	<path d="M1966.5,1202h-25.2c0.5,3.8,3.5,6.8,7.8,6.8c2.8,0,5.5-1.2,6.8-3.5l10,1c-3,7.3-9.4,10.7-16.9,10.7
		c-10.1,0-17.8-7.5-17.8-17.8c0-10.4,7.5-17.8,17.6-17.8c9.3,0,17.8,6.1,17.8,20.3V1202z M1941,1195.6h15.2
		c-0.5-3.4-3.4-6.2-7.5-6.2S1941.8,1192,1941,1195.6z"/>
	<path d="M1993,1191.7h-4.1c-4.9,0-7.1,2.3-7.1,8.2v16.2h-9.6v-33.9h9.3v5.4c1.3-3.6,4.6-5.8,8.8-5.8c0.9,0,1.8,0.1,2.7,0.3V1191.7z
		"/>
</g>
<g>
	<path d="M2258.9,1215.7h-10.2v-51.8h17.5c12.2,0,18.6,7.6,18.6,17c0,9.3-6.4,17.2-18.6,17.2h-7.3V1215.7z M2258.9,1172.8v16.6h5.8
		c5.6,0,9.7-2.7,9.7-8.4s-4.1-8.1-9.7-8.1H2258.9z"/>
	<path d="M2322.7,1215.7v-22h-20.6v22h-10.3v-51.8h10.3v21h20.6v-21h10.3v51.8H2322.7z"/>
	<path d="M2354,1215.7h-10.2v-51.8h17.5c12.2,0,18.6,7.6,18.6,17c0,9.3-6.4,17.2-18.6,17.2h-7.3V1215.7z M2354,1172.8v16.6h5.8
		c5.6,0,9.7-2.7,9.7-8.4s-4.1-8.1-9.7-8.1H2354z"/>
	<path d="M2443.9,1215.7h-12.2l-5.3-5.6c-3.4,4.4-8.2,6.4-14.1,6.4c-8.8,0-15.8-6-15.8-14.5c0-5.8,3.3-11,9-15.2
		c-3-3.4-4.2-6.7-4.2-10.5c0-5.8,4.5-13.4,15.5-13.4c8,0,13.8,5.4,13.8,11.8c0,1.8-0.3,4.3-1.8,6.5l-8.5-0.9c0.7-1.4,1-2.7,1-3.8
		c0-2.8-2.3-4.9-4.8-4.9c-3.4,0-5.3,2.4-5.3,5.1c0,2.3,1.3,4.9,4,7.8c3.8,4.1,8.7,9.3,10.6,11.2c1.6-2.9,3-6.2,3.8-8.6h11.2
		c-2.4,6.2-5.4,11.8-7.9,15.5l11.1,11.5V1215.7z M2410.9,1193.9c-3,3-4.1,5-4.1,7.8c0,3.6,3.3,6,6.2,6c2.5,0,5.3-1.5,6.9-4.1
		C2417,1200.3,2414,1197.1,2410.9,1193.9z"/>
	<path d="M2495.9,1215.7v-22h-20.6v22H2465v-51.8h10.3v21h20.6v-21h10.3v51.8H2495.9z"/>
	<path d="M2553.8,1163.9v9.2h-15.5v42.6h-10.2V1173h-15.5v-9.2H2553.8z"/>
	<path d="M2580.4,1204.6l-10.2-25.5v36.6h-10v-51.8h14.5l11.3,29.4l11.5-29.4h13.8v51.8h-10.2V1179l-9.9,25.5H2580.4z"/>
	<path d="M2622.2,1215.7v-51.8h10.3v43h22v8.8H2622.2z"/>
	<path d="M2683.7,1195.1v20.6h-10.3v-51.8h37.5v8.9h-27.2v13.5h20v8.9H2683.7z"/>
	<path d="M2727.4,1215.7h-9.6v-25.8h-4.7v-8.1h14.4V1215.7z M2722.2,1163.9c3.5,0,6.2,2.8,6.2,6.2c0,3.5-2.7,6.1-6.2,6.1
		c-3.4,0-6.1-2.7-6.1-6.1C2716,1166.7,2718.8,1163.9,2722.2,1163.9z"/>
	<path d="M2745.3,1215.7h-9.5v-51.8h9.5V1215.7z"/>
	<path d="M2786.8,1201.5h-25.2c0.5,3.8,3.5,6.8,7.8,6.8c2.8,0,5.5-1.2,6.8-3.5l10,1c-3,7.3-9.4,10.7-16.9,10.7
		c-10.1,0-17.8-7.5-17.8-17.8c0-10.4,7.5-17.8,17.6-17.8c9.3,0,17.8,6.1,17.8,20.3V1201.5z M2761.3,1195.1h15.2
		c-0.5-3.4-3.4-6.2-7.5-6.2S2762.1,1191.5,2761.3,1195.1z"/>
	<path d="M2812.5,1192.1c-2.7-2.7-6.1-3.5-8.4-3.5c-2.5,0-3.4,1.3-3.4,2.3c0,1.2,0.7,2,2.5,2.6l5.6,1.8c7,2.3,9.3,6.1,9.3,10.5
		c0,5-4.2,10.7-13.5,10.7c-7.5,0-12.1-2.9-14.9-5.3l5.1-6.7c2.4,2.3,6.8,4.2,10,4.2c2.3,0,3.7-1.2,3.7-2.5c0-1.7-1.1-2.4-3.8-3.3
		l-5.8-1.7c-5.5-1.8-7.8-5.5-7.8-9.9c0-5.6,5-10.5,13.2-10.5c4.4,0,9.7,1.3,13.7,5L2812.5,1192.1z"/>
</g>
<g>
	<path d="M1615.4,2001.3h-17.8v-51.8h17.8c16.9,0,26.9,10.5,26.9,25.9S1632.4,2001.3,1615.4,2001.3z M1615,1958.3h-7.1v34.3h7.1
		c9.5,0,16.7-5.6,16.7-17.2C1631.8,1964,1624.5,1958.3,1615,1958.3z"/>
	<path d="M1667.1,1978.8c0-2.4-1.9-4-5.6-4c-3.4,0-7.7,1.7-10.2,3.2l-3.8-7.3c0,0,6.3-4.1,14.5-4.1c7.7,0,14.7,3.6,14.7,12.5v22.3
		h-9.6v-3.2c-1.8,2.7-5.6,4.1-9.5,4.1c-7.2,0-11.8-5.1-11.8-10.7c0-6.4,4.7-10.4,12.3-10.4h6.7c1.6,0,2.4-0.7,2.4-2V1978.8z
		 M1667.1,1989.2v-2.4c-0.6,0.6-1.6,0.7-3,0.7h-3.6c-3,0-4.8,1.3-4.8,3.7c0,2.3,1.9,4,4.8,4
		C1664,1995.2,1667.1,1993.4,1667.1,1989.2z"/>
	<path d="M1696.7,1954.6v12.9h7.3v8.1h-7.3v15.3c0,2.1,1.7,2.4,3.2,2.4c2.4,0,4.4-0.2,4.4-0.2v8.2c0,0-4.7,0.4-7.5,0.4
		c-4.8,0-9.8-0.8-9.8-7.6v-18.6h-5.3v-8.1h5.3v-12.9H1696.7z"/>
	<path d="M1729.5,1978.8c0-2.4-1.9-4-5.6-4c-3.4,0-7.7,1.7-10.2,3.2l-3.8-7.3c0,0,6.3-4.1,14.5-4.1c7.7,0,14.7,3.6,14.7,12.5v22.3
		h-9.6v-3.2c-1.8,2.7-5.6,4.1-9.5,4.1c-7.2,0-11.8-5.1-11.8-10.7c0-6.4,4.7-10.4,12.3-10.4h6.7c1.6,0,2.4-0.7,2.4-2V1978.8z
		 M1729.5,1989.2v-2.4c-0.6,0.6-1.6,0.7-3,0.7h-3.6c-3,0-4.8,1.3-4.8,3.7c0,2.3,1.8,4,4.8,4
		C1726.4,1995.2,1729.5,1993.4,1729.5,1989.2z"/>
	<path d="M1756.7,2001.3h-9.6v-51.8h9.6v16.7c0,2.2-0.1,4.6-0.1,5.6c1.6-2.9,5.6-5.3,10.7-5.3c9.3,0,16.4,7.5,16.4,17.8
		s-7.2,17.8-16.5,17.8c-4.8,0-8.8-2.3-10.5-5.2V2001.3z M1756.5,1984.4c0,5.2,3.6,9.3,8.7,9.3s8.7-4.1,8.7-9.3
		c0-5.3-3.6-9.3-8.7-9.3S1756.5,1979.1,1756.5,1984.4z"/>
	<path d="M1808.7,1978.8c0-2.4-1.9-4-5.6-4c-3.4,0-7.7,1.7-10.2,3.2l-3.8-7.3c0,0,6.3-4.1,14.5-4.1c7.7,0,14.7,3.6,14.7,12.5v22.3
		h-9.6v-3.2c-1.8,2.7-5.6,4.1-9.5,4.1c-7.2,0-11.8-5.1-11.8-10.7c0-6.4,4.7-10.4,12.3-10.4h6.7c1.6,0,2.4-0.7,2.4-2V1978.8z
		 M1808.7,1989.2v-2.4c-0.6,0.6-1.6,0.7-3,0.7h-3.6c-3,0-4.8,1.3-4.8,3.7c0,2.3,1.8,4,4.8,4
		C1805.6,1995.2,1808.7,1993.4,1808.7,1989.2z"/>
	<path d="M1846.2,1977.8c-2.7-2.7-6.1-3.5-8.4-3.5c-2.5,0-3.4,1.3-3.4,2.3c0,1.2,0.7,2,2.5,2.6l5.6,1.8c7,2.3,9.3,6.1,9.3,10.5
		c0,5-4.2,10.7-13.5,10.7c-7.5,0-12.1-2.9-14.9-5.3l5.1-6.7c2.4,2.3,6.8,4.2,10,4.2c2.3,0,3.7-1.2,3.7-2.5c0-1.7-1.1-2.4-3.8-3.3
		l-5.8-1.7c-5.5-1.8-7.8-5.5-7.8-9.9c0-5.6,5-10.5,13.2-10.5c4.4,0,9.7,1.3,13.7,5L1846.2,1977.8z"/>
	<path d="M1891.3,1987.2h-25.2c0.5,3.8,3.5,6.8,7.8,6.8c2.8,0,5.5-1.2,6.8-3.5l10,1c-3,7.3-9.4,10.7-16.9,10.7
		c-10.1,0-17.8-7.5-17.8-17.8s7.5-17.8,17.6-17.8c9.3,0,17.8,6.1,17.8,20.3V1987.2z M1865.8,1980.8h15.2c-0.5-3.4-3.4-6.2-7.5-6.2
		S1866.6,1977.1,1865.8,1980.8z"/>
</g>
<g>
	<path d="M235.2,1192.5v-33.7h10.1v34.6c0,10.1-6.6,18.1-19.4,18.1c-12.9,0-19.3-8-19.3-18.1v-34.6h10.3v33.7c0,5.6,3.1,9.5,9.2,9.5
		C232.1,1202.1,235.2,1198.2,235.2,1192.5z"/>
	<path d="M273.3,1187.1c-2.7-2.7-6.1-3.5-8.4-3.5c-2.5,0-3.4,1.3-3.4,2.3c0,1.2,0.7,2,2.5,2.6l5.6,1.8c7,2.3,9.3,6.1,9.3,10.5
		c0,5-4.2,10.7-13.5,10.7c-7.5,0-12.1-2.9-14.9-5.3l5.1-6.7c2.4,2.3,6.8,4.2,10,4.2c2.3,0,3.7-1.2,3.7-2.5c0-1.7-1.1-2.4-3.8-3.3
		l-5.8-1.7c-5.5-1.8-7.8-5.5-7.8-9.9c0-5.6,5-10.5,13.2-10.5c4.4,0,9.7,1.3,13.7,5L273.3,1187.1z"/>
	<path d="M318.3,1196.5h-25.2c0.5,3.8,3.5,6.8,7.8,6.8c2.8,0,5.5-1.2,6.8-3.5l10,1c-3,7.3-9.4,10.7-16.9,10.7
		c-10.1,0-17.8-7.5-17.8-17.8c0-10.4,7.5-17.8,17.6-17.8c9.3,0,17.8,6.1,17.8,20.3V1196.5z M292.9,1190.1H308
		c-0.5-3.4-3.4-6.2-7.5-6.2S293.6,1186.5,292.9,1190.1z"/>
	<path d="M344.8,1186.2h-4.1c-4.9,0-7.1,2.3-7.1,8.2v16.2H324v-33.9h9.3v5.4c1.3-3.6,4.6-5.8,8.8-5.8c0.9,0,1.8,0.1,2.7,0.3V1186.2z
		"/>
</g>
<g>
	<polygon class="st52" points="1946.5,376.1 1946.5,561.2 1598.9,567.4 1598.9,357.1 1699.1,357.1 1713.4,376.1 	"/>
	<rect x="1598.9" y="406.1" class="st52" width="347.6" height="210.2"/>
</g>
<g>
	<polygon class="st52" points="2047.5,477.1 2047.5,662.3 1699.9,668.4 1699.9,458.2 1800.1,458.2 1814.4,477.1 	"/>
	<rect x="1699.9" y="507.2" class="st52" width="347.6" height="210.2"/>
</g>
<g>
	<polygon class="st52" points="2667.6,1289.5 2667.6,1487.8 2295.3,1494.4 2295.3,1269.3 2402.7,1269.3 2417.9,1289.5 	"/>
	<rect x="2295.3" y="1321.7" class="st52" width="372.3" height="225.1"/>
</g>
<g>
	<polygon class="st53" points="2770.3,1379.6 2770.3,1577.8 2398.1,1584.4 2398.1,1359.3 2505.4,1359.3 2520.7,1379.6 	"/>
	<rect x="2398.1" y="1411.8" class="st53" width="372.3" height="225.1"/>
</g>
<g>
	
		<rect x="1604.8" y="1327" transform="matrix(0.7071 -0.7071 0.7071 0.7071 -521.4203 1651.7649)" class="st55" width="256.7" height="256.7"/>
	
		<rect x="1640" y="1362.1" transform="matrix(0.7071 -0.7071 0.7071 0.7071 -521.4203 1651.7649)" class="st55" width="186.4" height="186.4"/>
	
		<rect x="1673.4" y="1395.6" transform="matrix(0.7071 -0.7071 0.7071 0.7071 -521.4203 1651.7649)" class="st55" width="119.5" height="119.5"/>
	
		<rect x="1702.8" y="1425" transform="matrix(0.7071 -0.7071 0.7071 0.7071 -521.4203 1651.7649)" class="st55" width="60.7" height="60.7"/>
</g>
<g>
	
		<rect x="1743.3" y="2191.6" transform="matrix(6.123234e-17 -1 1 6.123234e-17 -448.3456 4007.9041)" class="st56" width="73" height="73"/>
	
		<rect x="1743.3" y="2264.6" transform="matrix(6.123234e-17 -1 1 6.123234e-17 -521.341 4080.8997)" class="st57" width="73" height="73"/>
	
		<rect x="1670.3" y="2191.6" transform="matrix(6.123234e-17 -1 1 6.123234e-17 -521.341 3934.9087)" class="st57" width="73" height="73"/>
	
		<rect x="1597.3" y="2118.6" transform="matrix(6.123234e-17 -1 1 6.123234e-17 -521.341 3788.9177)" class="st58" width="73" height="73"/>
	
		<rect x="1524.3" y="2118.6" transform="matrix(6.123234e-17 -1 1 6.123234e-17 -594.3365 3715.9221)" class="st57" width="73" height="73"/>
	
		<rect x="1597.3" y="2264.6" transform="matrix(6.123234e-17 -1 1 6.123234e-17 -667.332 3934.9087)" class="st59" width="73" height="73"/>
	
		<rect x="1743.3" y="2118.6" transform="matrix(6.123234e-17 -1 1 6.123234e-17 -375.3501 3934.9087)" class="st57" width="73" height="73"/>
	
		<rect x="1816.3" y="2118.6" transform="matrix(6.123234e-17 -1 1 6.123234e-17 -302.3546 4007.9041)" class="st60" width="73" height="73"/>
	
		<rect x="1887.8" y="2118.6" transform="matrix(6.123234e-17 -1 1 6.123234e-17 -230.8298 4079.429)" class="st57" width="73" height="73"/>
	
		<rect x="1816.3" y="2045.6" transform="matrix(6.123234e-17 -1 1 6.123234e-17 -229.3591 3934.9087)" class="st57" width="73" height="73"/>
	
		<rect x="1743.3" y="2045.6" transform="matrix(6.123234e-17 -1 1 6.123234e-17 -302.3546 3861.9131)" class="st61" width="73" height="73"/>
	
		<rect x="1887.8" y="2191.6" transform="matrix(6.123234e-17 -1 1 6.123234e-17 -303.8253 4152.4243)" class="st62" width="73" height="73"/>
</g>
</svg>
